#!OML:ASF H:\LiuWeirdWalks\Patient Classification 1\Patient 1\Session 1\male.ASF
:FULLY-SPECIFIED
:DEGREES
768
root 1.46165 18.1144 39.4658 3.56411 2.30531 -1.30121
lowerback -0.977586 2.39423 3.63167
upperback -1.54504 3.18628 0.397154
thorax -0.86315 1.55914 -1.61231
lowerneck -23.5497 -0.339662 2.6866
upperneck 28.9051 -0.337895 -3.57163
head 13.7352 -0.350721 -1.94362
rclavicle 5.09789e-014 2.3059e-014
rhumerus -35.5865 -14.899 -70.3261
rradius 38.5205
rwrist -8.89774
rhand -16.1912 -0.990522
rfingers 7.12502
rthumb 10.0157 -30.7322
lclavicle 5.09789e-014 2.3059e-014
lhumerus -38.0191 -1.74746 82.1864
lradius 31.2393
lwrist 4.39692
lhand -11.1322 -2.55405
lfingers 7.12502
lthumb 14.8931 26.8906
rfemur -14.6378 -2.5375 24.9613
rtibia 29.5875
rfoot -6.94002 -12.2734
rtoes -0.282479
lfemur -12.6481 -3.49723 -17.3243
ltibia 25.814
lfoot -4.20668 15.3166
ltoes 1.92243
769
root 1.4682 18.1197 39.4915 3.72537 2.41083 -1.24486
lowerback -1.03351 2.50638 3.71396
upperback -1.60155 3.33361 0.276368
thorax -0.870292 1.63056 -1.77911
lowerneck -23.6859 -0.564521 2.4389
upperneck 28.9895 -0.659438 -3.29887
head 13.7887 -0.478167 -1.85455
rclavicle 2.6676e-014 1.33186e-014
rhumerus -35.8248 -15.6091 -70.0571
rradius 38.3618
rwrist -8.56373
rhand -16.1512 -0.975778
rfingers 7.12502
rthumb 10.0543 -30.7156
lclavicle 2.6676e-014 1.33186e-014
lhumerus -37.7733 -2.26219 82.3026
lradius 31.1756
lwrist 4.45859
lhand -11.1802 -2.5433
lfingers 7.12502
lthumb 14.8469 26.9048
rfemur -14.6676 -2.57975 24.8838
rtibia 29.493
rfoot -6.98285 -12.3365
rtoes -0.171357
lfemur -12.6622 -3.73802 -17.3919
ltibia 25.6151
lfoot -4.0101 15.4756
ltoes 1.8925
770
root 1.47377 18.1239 39.5162 3.81521 2.4975 -1.19269
lowerback -1.02065 2.54508 3.67669
upperback -1.64793 3.38672 0.222874
thorax -0.920952 1.65575 -1.81459
lowerneck -23.7713 -0.691308 2.30913
upperneck 29.0309 -0.846201 -3.14215
head 13.8188 -0.550785 -1.80592
rclavicle -9.27455e-015 -3.57812e-015
rhumerus -36.0168 -16.1403 -69.836
rradius 38.1574
rwrist -8.19226
rhand -16.0986 -0.942058
rfingers 7.12502
rthumb 10.105 -30.6794
lclavicle -9.27455e-015 -3.57812e-015
lhumerus -37.6039 -2.49623 82.337
lradius 31.1316
lwrist 4.49158
lhand -11.2115 -2.51801
lfingers 7.12502
lthumb 14.8167 26.9323
rfemur -14.6196 -2.59699 24.8126
rtibia 29.3991
rfoot -7.01604 -12.4142
rtoes -0.0884827
lfemur -12.5891 -3.86472 -17.4483
ltibia 25.4015
lfoot -3.84661 15.5784
ltoes 1.80337
771
root 1.47806 18.1272 39.541 3.84398 2.5625 -1.14951
lowerback -0.962575 2.47337 3.46473
upperback -1.69153 3.29566 0.270516
thorax -1.01778 1.61064 -1.65299
lowerneck -23.7597 -0.672023 2.35197
upperneck 29.0092 -0.830044 -3.15998
head 13.8073 -0.541815 -1.81678
rclavicle -2.20111e-014 7.95139e-015
rhumerus -36.1179 -16.3536 -69.7142
rradius 37.9045
rwrist -7.83849
rhand -16.056 -0.924615
rfingers 7.12502
rthumb 10.1461 -30.66
lclavicle -2.20111e-014 7.95139e-015
lhumerus -37.5631 -2.33449 82.266
lradius 31.1246
lwrist 4.48486
lhand -11.2297 -2.48373
lfingers 7.12502
lthumb 14.7992 26.9678
rfemur -14.5018 -2.59371 24.7537
rtibia 29.3039
rfoot -7.04085 -12.4968
rtoes -0.0354504
lfemur -12.439 -3.89501 -17.4897
ltibia 25.1906
lfoot -3.76539 15.6092
ltoes 1.67339
772
root 1.48109 18.1303 39.5658 3.84147 2.60905 -1.12021
lowerback -0.88967 2.32589 3.13672
upperback -1.73432 3.1046 0.390205
thorax -1.13607 1.51736 -1.35404
lowerneck -23.6739 -0.55283 2.50919
upperneck 28.946 -0.673495 -3.29677
head 13.7667 -0.476645 -1.86718
rclavicle -1.76305e-015 1.70955e-014
rhumerus -36.1522 -16.3185 -69.6812
rradius 37.6158
rwrist -7.5989
rhand -16.0541 -0.931127
rfingers 7.12502
rthumb 10.148 -30.6664
lclavicle -1.76305e-015 1.70955e-014
lhumerus -37.6201 -1.9089 82.1211
lradius 31.1605
lwrist 4.46567
lhand -11.2369 -2.44171
lfingers 7.12502
lthumb 14.7923 27.0104
rfemur -14.3462 -2.56756 24.7115
rtibia 29.2049
rfoot -7.06197 -12.5807
rtoes 0.00333062
lfemur -12.2476 -3.85203 -17.5111
ltibia 24.9879
lfoot -3.75887 15.5698
ltoes 1.52221
773
root 1.48343 18.1336 39.5907 3.8436 2.63633 -1.09552
lowerback -0.836899 2.17122 2.79164
upperback -1.77471 2.90277 0.520255
thorax -1.23951 1.4198 -1.03319
lowerneck -23.5536 -0.415499 2.68979
upperneck 28.863 -0.487501 -3.46851
head 13.712 -0.401047 -1.92935
rclavicle -2.49211e-014 -1.61016e-014
rhumerus -36.1723 -16.2091 -69.691
rradius 37.312
rwrist -7.52748
rhand -16.103 -0.980152
rfingers 7.12502
rthumb 10.1007 -30.7177
lclavicle -2.49211e-014 -1.61016e-014
lhumerus -37.6957 -1.46043 81.961
lradius 31.2052
lwrist 4.47871
lhand -11.2371 -2.40555
lfingers 7.12502
lthumb 14.792 27.0466
rfemur -14.1866 -2.52448 24.6744
rtibia 29.0859
rfoot -7.074 -12.6497
rtoes 0.0481575
lfemur -12.0644 -3.75568 -17.5242
ltibia 24.8084
lfoot -3.81511 15.4825
ltoes 1.36885
774
root 1.48511 18.1374 39.6152 3.86726 2.65752 -1.07775
lowerback -0.810408 1.96573 2.37698
upperback -1.82943 2.63264 0.69313
thorax -1.34677 1.28978 -0.628209
lowerneck -23.3732 -0.214778 2.93413
upperneck 28.761 -0.20892 -3.71323
head 13.6415 -0.288339 -2.01369
rclavicle 4.26673e-014 9.54166e-015
rhumerus -36.1496 -15.9146 -69.7658
rradius 36.9746
rwrist -7.5334
rhand -16.151 -1.0346
rfingers 7.12502
rthumb 10.0545 -30.7744
lclavicle 4.26673e-014 9.54166e-015
lhumerus -37.8513 -0.86092 81.7541
lradius 31.3003
lwrist 4.48713
lhand -11.2038 -2.35457
lfingers 7.12502
lthumb 14.8241 27.0952
rfemur -14.0549 -2.47616 24.6458
rtibia 28.9711
rfoot -7.08756 -12.707
rtoes 0.109779
lfemur -11.9228 -3.62217 -17.5272
ltibia 24.6658
lfoot -3.89341 15.3692
ltoes 1.25335
775
root 1.48719 18.1401 39.6368 3.79521 2.68868 -1.18265
lowerback -0.651999 1.94875 2.40656
upperback -1.83007 2.61565 0.728617
thorax -1.4371 1.28013 -0.614424
lowerneck -23.3595 -0.236834 2.92707
upperneck 28.7134 -0.239631 -3.71125
head 13.617 -0.302527 -2.01596
rclavicle 1.99732e-014 9.93923e-015
rhumerus -36.2942 -16.1879 -69.6882
rradius 36.6698
rwrist -7.52561
rhand -16.1422 -1.10557
rfingers 7.12502
rthumb 10.0629 -30.845
lclavicle 1.99732e-014 9.93923e-015
lhumerus -37.7888 -0.904154 81.6893
lradius 31.3747
lwrist 4.60661
lhand -11.171 -2.29828
lfingers 7.12502
lthumb 14.8558 27.1491
rfemur -13.8238 -2.4347 24.7466
rtibia 28.843
rfoot -7.10786 -12.7625
rtoes 0.197884
lfemur -11.7014 -3.48013 -17.4015
ltibia 24.5417
lfoot -3.98273 15.254
ltoes 1.2016
776
root 1.48954 18.1404 39.658 3.79931 2.71881 -1.26067
lowerback -0.616832 1.94324 2.44925
upperback -1.74109 2.60765 0.731742
thorax -1.36398 1.27696 -0.634335
lowerneck -23.6809 -0.255069 2.90614
upperneck 28.7129 -0.276975 -3.68185
head 13.6826 -0.31874 -2.01128
rclavicle 3.04222e-014 6.95746e-015
rhumerus -36.2256 -16.5669 -69.6739
rradius 36.3149
rwrist -7.44831
rhand -16.082 -1.14314
rfingers 7.12502
rthumb 10.121 -30.8797
lclavicle 3.04222e-014 6.95746e-015
lhumerus -37.5011 -1.00215 81.6291
lradius 31.4453
lwrist 4.77117
lhand -11.1349 -2.24722
lfingers 7.12502
lthumb 14.8905 27.1976
rfemur -13.6867 -2.39604 24.8195
rtibia 28.7249
rfoot -7.12243 -12.8038
rtoes 0.313328
lfemur -11.5746 -3.35263 -17.3068
ltibia 24.4332
lfoot -4.05206 15.1652
ltoes 1.19158
777
root 1.49243 18.1437 39.6793 3.84045 2.7546 -1.33483
lowerback -0.60995 1.93638 2.51065
upperback -1.68428 2.59754 0.724714
thorax -1.30685 1.27208 -0.674686
lowerneck -23.9458 -0.276301 2.87117
upperneck 28.7226 -0.316986 -3.63486
head 13.7406 -0.334645 -1.99727
rclavicle -1.26787e-014 -5.56597e-015
rhumerus -36.201 -16.9022 -69.6667
rradius 35.9612
rwrist -7.35101
rhand -15.977 -1.20325
rfingers 7.12502
rthumb 10.2223 -30.9349
lclavicle -1.26787e-014 -5.56597e-015
lhumerus -37.2789 -1.14625 81.5714
lradius 31.5592
lwrist 4.95024
lhand -11.0835 -2.20094
lfingers 7.12502
lthumb 14.94 27.2402
rfemur -13.5952 -2.3608 24.8881
rtibia 28.6175
rfoot -7.14003 -12.8462
rtoes 0.439534
lfemur -11.4882 -3.27122 -17.2211
ltibia 24.3267
lfoot -4.10838 15.1154
ltoes 1.22373
